# xmcd
#
# Track frame offsets:
#	151
#	16516
#	33630
#	58164
#	87875
#	120870
#
# Disc length: 2101 seconds
# Revision: 0
# Processed by: cddbd v1.5.2PL0 Copyright (c) Steve Scherf et al.
# Submitted via: dBpowerAMP V12.0
#
DISCID=3c083306
DTITLE=Res - Golden Boys
DYEAR=2001
DGENRE=House
TTITLE0=Golden Boys [Romain Tranchart Radio Edit]
TTITLE1=Golden Boys [Original Radio Edit]
TTITLE2=Golden Boys [Romain Tranchart Club Edit]
TTITLE3=Golden Boys [DYNK Vocal Mix]
TTITLE4=Golden Boys [Richard F Vocal Mix]
TTITLE5=Golden Boys [95 North Mix]
EXTD=
EXTT0=
EXTT1=
EXTT2=
EXTT3=
EXTT4=
EXTT5=
PLAYORDER=
